<?xml version="1.0" encoding="UTF-8" standalone="no"?>
<svg width="67px" height="16px" viewBox="0 0 67 16" version="1.1" xmlns="http://www.w3.org/2000/svg" xmlns:xlink="http://www.w3.org/1999/xlink" xmlns:sketch="http://www.bohemiancoding.com/sketch/ns">
    <!-- Generator: Sketch 3.0.4 (8053) - http://www.bohemiancoding.com/sketch -->
    <title>Stars</title>
    <desc>Created with Sketch.</desc>
    <defs></defs>
    <g id="Home" stroke="none" stroke-width="1" fill="none" fill-rule="evenodd" sketch:type="MSPage">
        <g sketch:type="MSArtboardGroup" transform="translate(-617.000000, -979.000000)" id="//-INTRO-TEXT" fill-opacity="0.9" fill="#0A0B09">
            <g sketch:type="MSLayerGroup" transform="translate(169.000000, 872.000000)">
                <g id="Copy-Layout-1" transform="translate(106.000000, 0.000000)" sketch:type="MSShapeGroup">
                    <g id="Headline-2">
                        <g id="Dash-decoration" transform="translate(341.000000, 108.000000)">
                            <g id="Stars" transform="translate(1.000000, 0.000000)">
                                <path d="M37.4239105,14.8692708 C37.3759105,14.8692708 37.3283207,14.8538542 37.2877053,14.8242708 L32.7654489,11.4646875 L28.2444233,14.7905208 C28.1636028,14.8496875 28.0540643,14.8488542 27.9736541,14.7896875 C27.8928335,14.7292708 27.8587823,14.6238542 27.8907823,14.5276042 L29.6159105,9.21802083 L25.0973464,5.96927083 C25.0157053,5.91052083 24.9804233,5.80427083 25.0107823,5.7071875 C25.040731,5.61010417 25.1301669,5.54385417 25.2302694,5.54385417 L30.820013,5.54385417 L32.5476028,0.1446875 C32.6091412,-0.0482291667 32.9242182,-0.0482291667 32.9857566,0.1446875 L34.7129361,5.54385417 L40.3026797,5.54385417 C40.4031925,5.54385417 40.4918079,5.61010417 40.5221669,5.7071875 C40.5529361,5.80427083 40.5180643,5.91052083 40.4356028,5.96927083 L35.9174489,9.21302083 L37.6433976,14.5621875 C37.6737566,14.6588542 37.6405259,14.7646875 37.5588848,14.8242708 C37.5186797,14.8542708 37.4715002,14.8692708 37.4239105,14.8692708" id="Imported-Layers"></path>
                                <path d="M9.88090078,11.243685 C9.84272575,11.243685 9.80487699,11.2316125 9.77257504,11.2084465 L6.17596453,8.57763178 L2.58033288,11.1820176 C2.51605525,11.2283497 2.42893786,11.2276971 2.36498652,11.1813651 C2.30070889,11.1340541 2.27362745,11.0515047 2.29907748,10.9761334 L3.67109482,6.81831727 L0.0774208575,4.27429367 C0.0124906669,4.22828786 -0.0155696165,4.14508586 0.00857527853,4.06906207 C0.0323938911,3.99303828 0.103523447,3.94115938 0.183136344,3.94115938 L4.62873356,3.94115938 L6.0027086,-0.286807501 C6.05165095,-0.437876235 6.30223581,-0.437876235 6.35117816,-0.286807501 L7.72482692,3.94115938 L12.1704241,3.94115938 C12.2503633,3.94115938 12.3208403,3.99303828 12.3449852,4.06906207 C12.3694564,4.14508586 12.3417224,4.22828786 12.2761396,4.27429367 L8.68279194,6.81440188 L10.0554618,11.0032149 C10.0796067,11.0789124 10.0531779,11.1617881 9.98824768,11.2084465 C9.95627201,11.2319388 9.91874954,11.243685 9.88090078,11.243685" id="Imported-Layers-2"></path>
                                <path d="M63.7740526,11.243685 C63.7358776,11.243685 63.6980288,11.2316125 63.6657269,11.2084465 L60.0691164,8.57763178 L56.4734847,11.1820176 C56.4092071,11.2283497 56.3220897,11.2276971 56.2581384,11.1813651 C56.1938607,11.1340541 56.1667793,11.0515047 56.1922293,10.9761334 L57.5642467,6.81831727 L53.9705727,4.27429367 C53.9056425,4.22828786 53.8775822,4.14508586 53.9017271,4.06906207 C53.9255457,3.99303828 53.9966753,3.94115938 54.0762882,3.94115938 L58.5218854,3.94115938 L59.8958604,-0.286807501 C59.9448028,-0.437876235 60.1953877,-0.437876235 60.24433,-0.286807501 L61.6179788,3.94115938 L66.063576,3.94115938 C66.1435152,3.94115938 66.2139921,3.99303828 66.238137,4.06906207 C66.2626082,4.14508586 66.2348742,4.22828786 66.1692915,4.27429367 L62.5759438,6.81440188 L63.9486137,11.0032149 C63.9727586,11.0789124 63.9463297,11.1617881 63.8813995,11.2084465 C63.8494239,11.2319388 63.8119014,11.243685 63.7740526,11.243685" id="Imported-Layers-3"></path>
                            </g>
                        </g>
                    </g>
                </g>
            </g>
        </g>
    </g>
</svg>