<svg width="67" height="16" viewBox="0 0 67 16" xmlns="http://www.w3.org/2000/svg"><title>Stars</title><desc>Created with Sketch.</desc><g fill="none" fill-rule="evenodd"><g fill-opacity=".9" fill="#0A0B09"><g><g><g><g><path d="M37.424 15.87c-.048 0-.096-.016-.136-.046l-4.523-3.36-4.52 3.327c-.08.06-.19.06-.27 0-.082-.06-.116-.166-.084-.262l1.726-5.31-4.52-3.25c-.08-.057-.116-.164-.085-.26.03-.098.12-.164.22-.164h5.59l1.728-5.4c.06-.192.376-.192.438 0l1.727 5.4h5.59c.1 0 .19.066.22.163s-.005.204-.087.262l-4.52 3.243 1.727 5.35c.03.096-.002.202-.084.26-.04.03-.088.046-.136.046"/><path d="M9.88 12.244c-.037 0-.075-.012-.107-.036l-3.597-2.63-3.596 2.604c-.064.046-.15.046-.215 0-.064-.048-.09-.13-.066-.206l1.37-4.158L.078 5.274c-.065-.046-.093-.13-.068-.205.022-.077.094-.13.173-.13H4.63L6.002.714c.05-.15.3-.15.348 0L7.726 4.94h4.445c.08 0 .15.053.175.13.024.075-.003.158-.07.204l-3.592 2.54 1.372 4.19c.025.075-.002.158-.067.204-.032.024-.07.036-.107.036"/><path d="M63.774 12.244c-.038 0-.076-.012-.108-.036l-3.597-2.63-3.597 2.604c-.064.046-.15.046-.215 0-.064-.048-.09-.13-.066-.206l1.372-4.158-3.593-2.544c-.064-.046-.092-.13-.068-.205.024-.077.095-.13.174-.13h4.446L59.896.714c.05-.15.3-.15.348 0l1.374 4.228h4.446c.08 0 .15.053.174.13.025.075-.003.158-.07.204l-3.592 2.54 1.373 4.19c.023.075-.004.158-.07.204-.03.024-.068.036-.106.036"/></g></g></g></g></g></g></svg>